%TF.GenerationSoftware,KiCad,Pcbnew,8.0.2*%
%TF.CreationDate,2024-05-11T22:57:43+02:00*%
%TF.ProjectId,ROBOGT,524f424f-4754-42e6-9b69-6361645f7063,rev?*%
%TF.SameCoordinates,Original*%
%TF.FileFunction,Legend,Top*%
%TF.FilePolarity,Positive*%
%FSLAX46Y46*%
G04 Gerber Fmt 4.6, Leading zero omitted, Abs format (unit mm)*
G04 Created by KiCad (PCBNEW 8.0.2) date 2024-05-11 22:57:43*
%MOMM*%
%LPD*%
G01*
G04 APERTURE LIST*
%ADD10C,0.150000*%
%ADD11C,0.120000*%
G04 APERTURE END LIST*
D10*
X267716666Y-140374819D02*
X267716666Y-141089104D01*
X267716666Y-141089104D02*
X267669047Y-141231961D01*
X267669047Y-141231961D02*
X267573809Y-141327200D01*
X267573809Y-141327200D02*
X267430952Y-141374819D01*
X267430952Y-141374819D02*
X267335714Y-141374819D01*
X268621428Y-140708152D02*
X268621428Y-141374819D01*
X268383333Y-140327200D02*
X268145238Y-141041485D01*
X268145238Y-141041485D02*
X268764285Y-141041485D01*
X246716666Y-139874819D02*
X246716666Y-140589104D01*
X246716666Y-140589104D02*
X246669047Y-140731961D01*
X246669047Y-140731961D02*
X246573809Y-140827200D01*
X246573809Y-140827200D02*
X246430952Y-140874819D01*
X246430952Y-140874819D02*
X246335714Y-140874819D01*
X247097619Y-139874819D02*
X247716666Y-139874819D01*
X247716666Y-139874819D02*
X247383333Y-140255771D01*
X247383333Y-140255771D02*
X247526190Y-140255771D01*
X247526190Y-140255771D02*
X247621428Y-140303390D01*
X247621428Y-140303390D02*
X247669047Y-140351009D01*
X247669047Y-140351009D02*
X247716666Y-140446247D01*
X247716666Y-140446247D02*
X247716666Y-140684342D01*
X247716666Y-140684342D02*
X247669047Y-140779580D01*
X247669047Y-140779580D02*
X247621428Y-140827200D01*
X247621428Y-140827200D02*
X247526190Y-140874819D01*
X247526190Y-140874819D02*
X247240476Y-140874819D01*
X247240476Y-140874819D02*
X247145238Y-140827200D01*
X247145238Y-140827200D02*
X247097619Y-140779580D01*
X243349819Y-86641666D02*
X242873628Y-86974999D01*
X243349819Y-87213094D02*
X242349819Y-87213094D01*
X242349819Y-87213094D02*
X242349819Y-86832142D01*
X242349819Y-86832142D02*
X242397438Y-86736904D01*
X242397438Y-86736904D02*
X242445057Y-86689285D01*
X242445057Y-86689285D02*
X242540295Y-86641666D01*
X242540295Y-86641666D02*
X242683152Y-86641666D01*
X242683152Y-86641666D02*
X242778390Y-86689285D01*
X242778390Y-86689285D02*
X242826009Y-86736904D01*
X242826009Y-86736904D02*
X242873628Y-86832142D01*
X242873628Y-86832142D02*
X242873628Y-87213094D01*
X243349819Y-85689285D02*
X243349819Y-86260713D01*
X243349819Y-85974999D02*
X242349819Y-85974999D01*
X242349819Y-85974999D02*
X242492676Y-86070237D01*
X242492676Y-86070237D02*
X242587914Y-86165475D01*
X242587914Y-86165475D02*
X242635533Y-86260713D01*
X271666666Y-100454819D02*
X271666666Y-101169104D01*
X271666666Y-101169104D02*
X271619047Y-101311961D01*
X271619047Y-101311961D02*
X271523809Y-101407200D01*
X271523809Y-101407200D02*
X271380952Y-101454819D01*
X271380952Y-101454819D02*
X271285714Y-101454819D01*
X272571428Y-100454819D02*
X272380952Y-100454819D01*
X272380952Y-100454819D02*
X272285714Y-100502438D01*
X272285714Y-100502438D02*
X272238095Y-100550057D01*
X272238095Y-100550057D02*
X272142857Y-100692914D01*
X272142857Y-100692914D02*
X272095238Y-100883390D01*
X272095238Y-100883390D02*
X272095238Y-101264342D01*
X272095238Y-101264342D02*
X272142857Y-101359580D01*
X272142857Y-101359580D02*
X272190476Y-101407200D01*
X272190476Y-101407200D02*
X272285714Y-101454819D01*
X272285714Y-101454819D02*
X272476190Y-101454819D01*
X272476190Y-101454819D02*
X272571428Y-101407200D01*
X272571428Y-101407200D02*
X272619047Y-101359580D01*
X272619047Y-101359580D02*
X272666666Y-101264342D01*
X272666666Y-101264342D02*
X272666666Y-101026247D01*
X272666666Y-101026247D02*
X272619047Y-100931009D01*
X272619047Y-100931009D02*
X272571428Y-100883390D01*
X272571428Y-100883390D02*
X272476190Y-100835771D01*
X272476190Y-100835771D02*
X272285714Y-100835771D01*
X272285714Y-100835771D02*
X272190476Y-100883390D01*
X272190476Y-100883390D02*
X272142857Y-100931009D01*
X272142857Y-100931009D02*
X272095238Y-101026247D01*
X243349819Y-110116666D02*
X242873628Y-110449999D01*
X243349819Y-110688094D02*
X242349819Y-110688094D01*
X242349819Y-110688094D02*
X242349819Y-110307142D01*
X242349819Y-110307142D02*
X242397438Y-110211904D01*
X242397438Y-110211904D02*
X242445057Y-110164285D01*
X242445057Y-110164285D02*
X242540295Y-110116666D01*
X242540295Y-110116666D02*
X242683152Y-110116666D01*
X242683152Y-110116666D02*
X242778390Y-110164285D01*
X242778390Y-110164285D02*
X242826009Y-110211904D01*
X242826009Y-110211904D02*
X242873628Y-110307142D01*
X242873628Y-110307142D02*
X242873628Y-110688094D01*
X242445057Y-109735713D02*
X242397438Y-109688094D01*
X242397438Y-109688094D02*
X242349819Y-109592856D01*
X242349819Y-109592856D02*
X242349819Y-109354761D01*
X242349819Y-109354761D02*
X242397438Y-109259523D01*
X242397438Y-109259523D02*
X242445057Y-109211904D01*
X242445057Y-109211904D02*
X242540295Y-109164285D01*
X242540295Y-109164285D02*
X242635533Y-109164285D01*
X242635533Y-109164285D02*
X242778390Y-109211904D01*
X242778390Y-109211904D02*
X243349819Y-109783332D01*
X243349819Y-109783332D02*
X243349819Y-109164285D01*
X271666666Y-91954819D02*
X271666666Y-92669104D01*
X271666666Y-92669104D02*
X271619047Y-92811961D01*
X271619047Y-92811961D02*
X271523809Y-92907200D01*
X271523809Y-92907200D02*
X271380952Y-92954819D01*
X271380952Y-92954819D02*
X271285714Y-92954819D01*
X272047619Y-91954819D02*
X272714285Y-91954819D01*
X272714285Y-91954819D02*
X272285714Y-92954819D01*
X238584819Y-130571904D02*
X239394342Y-130571904D01*
X239394342Y-130571904D02*
X239489580Y-130524285D01*
X239489580Y-130524285D02*
X239537200Y-130476666D01*
X239537200Y-130476666D02*
X239584819Y-130381428D01*
X239584819Y-130381428D02*
X239584819Y-130190952D01*
X239584819Y-130190952D02*
X239537200Y-130095714D01*
X239537200Y-130095714D02*
X239489580Y-130048095D01*
X239489580Y-130048095D02*
X239394342Y-130000476D01*
X239394342Y-130000476D02*
X238584819Y-130000476D01*
X239584819Y-129000476D02*
X239584819Y-129571904D01*
X239584819Y-129286190D02*
X238584819Y-129286190D01*
X238584819Y-129286190D02*
X238727676Y-129381428D01*
X238727676Y-129381428D02*
X238822914Y-129476666D01*
X238822914Y-129476666D02*
X238870533Y-129571904D01*
X271666666Y-117954819D02*
X271666666Y-118669104D01*
X271666666Y-118669104D02*
X271619047Y-118811961D01*
X271619047Y-118811961D02*
X271523809Y-118907200D01*
X271523809Y-118907200D02*
X271380952Y-118954819D01*
X271380952Y-118954819D02*
X271285714Y-118954819D01*
X272666666Y-118954819D02*
X272095238Y-118954819D01*
X272380952Y-118954819D02*
X272380952Y-117954819D01*
X272380952Y-117954819D02*
X272285714Y-118097676D01*
X272285714Y-118097676D02*
X272190476Y-118192914D01*
X272190476Y-118192914D02*
X272095238Y-118240533D01*
X251548095Y-84004819D02*
X251548095Y-84814342D01*
X251548095Y-84814342D02*
X251595714Y-84909580D01*
X251595714Y-84909580D02*
X251643333Y-84957200D01*
X251643333Y-84957200D02*
X251738571Y-85004819D01*
X251738571Y-85004819D02*
X251929047Y-85004819D01*
X251929047Y-85004819D02*
X252024285Y-84957200D01*
X252024285Y-84957200D02*
X252071904Y-84909580D01*
X252071904Y-84909580D02*
X252119523Y-84814342D01*
X252119523Y-84814342D02*
X252119523Y-84004819D01*
X252548095Y-84100057D02*
X252595714Y-84052438D01*
X252595714Y-84052438D02*
X252690952Y-84004819D01*
X252690952Y-84004819D02*
X252929047Y-84004819D01*
X252929047Y-84004819D02*
X253024285Y-84052438D01*
X253024285Y-84052438D02*
X253071904Y-84100057D01*
X253071904Y-84100057D02*
X253119523Y-84195295D01*
X253119523Y-84195295D02*
X253119523Y-84290533D01*
X253119523Y-84290533D02*
X253071904Y-84433390D01*
X253071904Y-84433390D02*
X252500476Y-85004819D01*
X252500476Y-85004819D02*
X253119523Y-85004819D01*
X271666666Y-108954819D02*
X271666666Y-109669104D01*
X271666666Y-109669104D02*
X271619047Y-109811961D01*
X271619047Y-109811961D02*
X271523809Y-109907200D01*
X271523809Y-109907200D02*
X271380952Y-109954819D01*
X271380952Y-109954819D02*
X271285714Y-109954819D01*
X272619047Y-108954819D02*
X272142857Y-108954819D01*
X272142857Y-108954819D02*
X272095238Y-109431009D01*
X272095238Y-109431009D02*
X272142857Y-109383390D01*
X272142857Y-109383390D02*
X272238095Y-109335771D01*
X272238095Y-109335771D02*
X272476190Y-109335771D01*
X272476190Y-109335771D02*
X272571428Y-109383390D01*
X272571428Y-109383390D02*
X272619047Y-109431009D01*
X272619047Y-109431009D02*
X272666666Y-109526247D01*
X272666666Y-109526247D02*
X272666666Y-109764342D01*
X272666666Y-109764342D02*
X272619047Y-109859580D01*
X272619047Y-109859580D02*
X272571428Y-109907200D01*
X272571428Y-109907200D02*
X272476190Y-109954819D01*
X272476190Y-109954819D02*
X272238095Y-109954819D01*
X272238095Y-109954819D02*
X272142857Y-109907200D01*
X272142857Y-109907200D02*
X272095238Y-109859580D01*
X242374819Y-99783333D02*
X243089104Y-99783333D01*
X243089104Y-99783333D02*
X243231961Y-99830952D01*
X243231961Y-99830952D02*
X243327200Y-99926190D01*
X243327200Y-99926190D02*
X243374819Y-100069047D01*
X243374819Y-100069047D02*
X243374819Y-100164285D01*
X242470057Y-99354761D02*
X242422438Y-99307142D01*
X242422438Y-99307142D02*
X242374819Y-99211904D01*
X242374819Y-99211904D02*
X242374819Y-98973809D01*
X242374819Y-98973809D02*
X242422438Y-98878571D01*
X242422438Y-98878571D02*
X242470057Y-98830952D01*
X242470057Y-98830952D02*
X242565295Y-98783333D01*
X242565295Y-98783333D02*
X242660533Y-98783333D01*
X242660533Y-98783333D02*
X242803390Y-98830952D01*
X242803390Y-98830952D02*
X243374819Y-99402380D01*
X243374819Y-99402380D02*
X243374819Y-98783333D01*
D11*
%TO.C,J7*%
X265820095Y-125249359D02*
G75*
G02*
X265917133Y-123800000I-320095J749359D01*
G01*
X269679905Y-114750641D02*
G75*
G02*
X269582867Y-116200000I320095J-749359D01*
G01*
%TO.C,J4*%
X268679905Y-138250641D02*
G75*
G02*
X268582867Y-139700000I320095J-749359D01*
G01*
%TO.C,J3*%
X247679905Y-137750641D02*
G75*
G02*
X247582867Y-139200000I320095J-749359D01*
G01*
%TO.C,J7*%
X265820095Y-107749359D02*
G75*
G02*
X265917133Y-106300000I-320095J749359D01*
G01*
X265820095Y-99249359D02*
G75*
G02*
X265917133Y-97800000I-320095J749359D01*
G01*
%TO.C,R1*%
X240225641Y-85845095D02*
G75*
G02*
X241675000Y-85942133I749359J320095D01*
G01*
%TO.C,J6*%
X265820095Y-101749359D02*
G75*
G02*
X265917133Y-100300000I-320095J749359D01*
G01*
%TO.C,R2*%
X240225641Y-109320095D02*
G75*
G02*
X241675000Y-109417133I749359J320095D01*
G01*
%TO.C,J7*%
X265820095Y-93249359D02*
G75*
G02*
X265917133Y-91800000I-320095J749359D01*
G01*
%TO.C,U1*%
X240130000Y-127160000D02*
X240130000Y-128810000D01*
X240130000Y-130810000D02*
X240130000Y-132460000D01*
X240130000Y-132460000D02*
X260570000Y-132460000D01*
X260570000Y-127160000D02*
X240130000Y-127160000D01*
X260570000Y-132460000D02*
X260570000Y-127160000D01*
X240130000Y-128810000D02*
G75*
G02*
X240130000Y-130810000I0J-1000000D01*
G01*
%TO.C,J1*%
X265820095Y-119249359D02*
G75*
G02*
X265917133Y-117800000I-320095J749359D01*
G01*
%TO.C,U2*%
X249660000Y-85550000D02*
X249660000Y-121230000D01*
X249660000Y-121230000D02*
X254960000Y-121230000D01*
X251310000Y-85550000D02*
X249660000Y-85550000D01*
X254960000Y-85550000D02*
X253310000Y-85550000D01*
X254960000Y-121230000D02*
X254960000Y-85550000D01*
X253310000Y-85550000D02*
G75*
G02*
X251310000Y-85550000I-1000000J0D01*
G01*
%TO.C,J5*%
X265820095Y-110249359D02*
G75*
G02*
X265917133Y-108800000I-320095J749359D01*
G01*
%TO.C,J2*%
X240250641Y-98820095D02*
G75*
G02*
X241700000Y-98917133I749359J320095D01*
G01*
%TD*%
M02*
