%TF.GenerationSoftware,KiCad,Pcbnew,8.0.2*%
%TF.CreationDate,2024-05-11T22:57:43+02:00*%
%TF.ProjectId,ROBOGT,524f424f-4754-42e6-9b69-6361645f7063,rev?*%
%TF.SameCoordinates,Original*%
%TF.FileFunction,Copper,L2,Bot*%
%TF.FilePolarity,Positive*%
%FSLAX46Y46*%
G04 Gerber Fmt 4.6, Leading zero omitted, Abs format (unit mm)*
G04 Created by KiCad (PCBNEW 8.0.2) date 2024-05-11 22:57:43*
%MOMM*%
%LPD*%
G01*
G04 APERTURE LIST*
%TA.AperFunction,ComponentPad*%
%ADD10C,1.400000*%
%TD*%
%TA.AperFunction,ComponentPad*%
%ADD11O,1.400000X1.400000*%
%TD*%
%TA.AperFunction,ComponentPad*%
%ADD12R,1.600000X1.600000*%
%TD*%
%TA.AperFunction,ComponentPad*%
%ADD13O,1.600000X1.600000*%
%TD*%
G04 APERTURE END LIST*
D10*
%TO.P,J7,1,Pin_1*%
%TO.N,N/C*%
X265500000Y-124500000D03*
D11*
%TO.P,J7,2,Pin_2*%
X270000000Y-124500000D03*
%TD*%
D10*
%TO.P,J7,1,Pin_1*%
%TO.N,N/C*%
X270000000Y-115500000D03*
D11*
%TO.P,J7,2,Pin_2*%
X265500000Y-115500000D03*
%TD*%
D10*
%TO.P,J4,1,Pin_1*%
%TO.N,Earth*%
X269000000Y-139000000D03*
D11*
%TO.P,J4,2,Pin_2*%
%TO.N,Net-(J4-Pin_2)*%
X264500000Y-139000000D03*
%TD*%
D10*
%TO.P,J3,1,Pin_1*%
%TO.N,Earth*%
X248000000Y-138500000D03*
D11*
%TO.P,J3,2,Pin_2*%
%TO.N,Net-(J3-Pin_2)*%
X243500000Y-138500000D03*
%TD*%
D10*
%TO.P,J7,1,Pin_1*%
%TO.N,N/C*%
X265500000Y-107000000D03*
D11*
%TO.P,J7,2,Pin_2*%
X270000000Y-107000000D03*
%TD*%
D10*
%TO.P,J7,1,Pin_1*%
%TO.N,N/C*%
X265500000Y-98500000D03*
D11*
%TO.P,J7,2,Pin_2*%
X270000000Y-98500000D03*
%TD*%
D10*
%TO.P,R1,1*%
%TO.N,-6V*%
X240975000Y-85525000D03*
D11*
%TO.P,R1,2*%
%TO.N,Net-(J2-Pin_1)*%
X240975000Y-92525000D03*
%TD*%
D10*
%TO.P,J6,1,Pin_1*%
%TO.N,Net-(J6-Pin_1)*%
X265500000Y-101000000D03*
D11*
%TO.P,J6,2,Pin_2*%
%TO.N,Earth*%
X270000000Y-101000000D03*
%TD*%
D10*
%TO.P,R2,1*%
%TO.N,Net-(J2-Pin_2)*%
X240975000Y-109000000D03*
D11*
%TO.P,R2,2*%
%TO.N,Earth*%
X240975000Y-116000000D03*
%TD*%
D10*
%TO.P,J7,1,Pin_1*%
%TO.N,Net-(J7-Pin_1)*%
X265500000Y-92500000D03*
D11*
%TO.P,J7,2,Pin_2*%
%TO.N,Earth*%
X270000000Y-92500000D03*
%TD*%
D12*
%TO.P,U1,1,EN1\u002C2*%
%TO.N,-6V*%
X241460000Y-133620000D03*
D13*
%TO.P,U1,2,1A*%
%TO.N,Net-(U1-1A)*%
X244000000Y-133620000D03*
%TO.P,U1,3,1Y*%
%TO.N,Net-(J3-Pin_2)*%
X246540000Y-133620000D03*
%TO.P,U1,4,GND*%
%TO.N,Earth*%
X249080000Y-133620000D03*
%TO.P,U1,5,GND*%
X251620000Y-133620000D03*
%TO.P,U1,6,2Y*%
%TO.N,Net-(J4-Pin_2)*%
X254160000Y-133620000D03*
%TO.P,U1,7,2A*%
%TO.N,Net-(U1-2A)*%
X256700000Y-133620000D03*
%TO.P,U1,8,VCC2*%
%TO.N,-6V*%
X259240000Y-133620000D03*
%TO.P,U1,9,EN3\u002C4*%
%TO.N,unconnected-(U1-EN3\u002C4-Pad9)*%
X259240000Y-126000000D03*
%TO.P,U1,10,3A*%
%TO.N,unconnected-(U1-3A-Pad10)*%
X256700000Y-126000000D03*
%TO.P,U1,11,3Y*%
%TO.N,unconnected-(U1-3Y-Pad11)*%
X254160000Y-126000000D03*
%TO.P,U1,12,GND*%
%TO.N,Earth*%
X251620000Y-126000000D03*
%TO.P,U1,13,GND*%
X249080000Y-126000000D03*
%TO.P,U1,14,4Y*%
%TO.N,unconnected-(U1-4Y-Pad14)*%
X246540000Y-126000000D03*
%TO.P,U1,15,4A*%
%TO.N,unconnected-(U1-4A-Pad15)*%
X244000000Y-126000000D03*
%TO.P,U1,16,VCC1*%
%TO.N,-6V*%
X241460000Y-126000000D03*
%TD*%
D10*
%TO.P,J1,1,Pin_1*%
%TO.N,Net-(J1-Pin_1)*%
X265500000Y-118500000D03*
D11*
%TO.P,J1,2,Pin_2*%
%TO.N,Earth*%
X270000000Y-118500000D03*
%TD*%
D12*
%TO.P,U2,1,~{RESET}/PC6*%
%TO.N,-6V*%
X248500000Y-86880000D03*
D13*
%TO.P,U2,2,PD0*%
%TO.N,unconnected-(U2-PD0-Pad2)*%
X248500000Y-89420000D03*
%TO.P,U2,3,PD1*%
%TO.N,unconnected-(U2-PD1-Pad3)*%
X248500000Y-91960000D03*
%TO.P,U2,4,PD2*%
%TO.N,unconnected-(U2-PD2-Pad4)*%
X248500000Y-94500000D03*
%TO.P,U2,5,PD3*%
%TO.N,unconnected-(U2-PD3-Pad5)*%
X248500000Y-97040000D03*
%TO.P,U2,6,PD4*%
%TO.N,unconnected-(U2-PD4-Pad6)*%
X248500000Y-99580000D03*
%TO.P,U2,7,VCC*%
%TO.N,-6V*%
X248500000Y-102120000D03*
%TO.P,U2,8,GND*%
%TO.N,Earth*%
X248500000Y-104660000D03*
%TO.P,U2,9,XTAL1/PB6*%
%TO.N,unconnected-(U2-XTAL1{slash}PB6-Pad9)*%
X248500000Y-107200000D03*
%TO.P,U2,10,XTAL2/PB7*%
%TO.N,unconnected-(U2-XTAL2{slash}PB7-Pad10)*%
X248500000Y-109740000D03*
%TO.P,U2,11,PD5*%
%TO.N,unconnected-(U2-PD5-Pad11)*%
X248500000Y-112280000D03*
%TO.P,U2,12,PD6*%
%TO.N,unconnected-(U2-PD6-Pad12)*%
X248500000Y-114820000D03*
%TO.P,U2,13,PD7*%
%TO.N,unconnected-(U2-PD7-Pad13)*%
X248500000Y-117360000D03*
%TO.P,U2,14,PB0*%
%TO.N,unconnected-(U2-PB0-Pad14)*%
X248500000Y-119900000D03*
%TO.P,U2,15,PB1*%
%TO.N,Net-(U1-1A)*%
X256120000Y-119900000D03*
%TO.P,U2,16,PB2*%
%TO.N,Net-(U1-2A)*%
X256120000Y-117360000D03*
%TO.P,U2,17,PB3*%
%TO.N,unconnected-(U2-PB3-Pad17)*%
X256120000Y-114820000D03*
%TO.P,U2,18,PB4*%
%TO.N,unconnected-(U2-PB4-Pad18)*%
X256120000Y-112280000D03*
%TO.P,U2,19,PB5*%
%TO.N,unconnected-(U2-PB5-Pad19)*%
X256120000Y-109740000D03*
%TO.P,U2,20,AVCC*%
%TO.N,-6V*%
X256120000Y-107200000D03*
%TO.P,U2,21,AREF*%
%TO.N,unconnected-(U2-AREF-Pad21)*%
X256120000Y-104660000D03*
%TO.P,U2,22,GND*%
%TO.N,Earth*%
X256120000Y-102120000D03*
%TO.P,U2,23,PC0*%
%TO.N,Net-(J1-Pin_1)*%
X256120000Y-99580000D03*
%TO.P,U2,24,PC1*%
%TO.N,Net-(J5-Pin_1)*%
X256120000Y-97040000D03*
%TO.P,U2,25,PC2*%
%TO.N,Net-(J6-Pin_1)*%
X256120000Y-94500000D03*
%TO.P,U2,26,PC3*%
%TO.N,Net-(J7-Pin_1)*%
X256120000Y-91960000D03*
%TO.P,U2,27,PC4*%
%TO.N,unconnected-(U2-PC4-Pad27)*%
X256120000Y-89420000D03*
%TO.P,U2,28,PC5*%
%TO.N,unconnected-(U2-PC5-Pad28)*%
X256120000Y-86880000D03*
%TD*%
D10*
%TO.P,J5,1,Pin_1*%
%TO.N,Net-(J5-Pin_1)*%
X265500000Y-109500000D03*
D11*
%TO.P,J5,2,Pin_2*%
%TO.N,Earth*%
X270000000Y-109500000D03*
%TD*%
D10*
%TO.P,J2,1,Pin_1*%
%TO.N,Net-(J2-Pin_1)*%
X241000000Y-98500000D03*
D11*
%TO.P,J2,2,Pin_2*%
%TO.N,Net-(J2-Pin_2)*%
X241000000Y-103000000D03*
%TD*%
M02*
