%TF.GenerationSoftware,KiCad,Pcbnew,8.0.2*%
%TF.CreationDate,2024-05-11T22:57:43+02:00*%
%TF.ProjectId,ROBOGT,524f424f-4754-42e6-9b69-6361645f7063,rev?*%
%TF.SameCoordinates,Original*%
%TF.FileFunction,Soldermask,Bot*%
%TF.FilePolarity,Negative*%
%FSLAX46Y46*%
G04 Gerber Fmt 4.6, Leading zero omitted, Abs format (unit mm)*
G04 Created by KiCad (PCBNEW 8.0.2) date 2024-05-11 22:57:43*
%MOMM*%
%LPD*%
G01*
G04 APERTURE LIST*
%ADD10C,1.400000*%
%ADD11O,1.400000X1.400000*%
%ADD12R,1.600000X1.600000*%
%ADD13O,1.600000X1.600000*%
G04 APERTURE END LIST*
D10*
%TO.C,J7*%
X265500000Y-124500000D03*
D11*
X270000000Y-124500000D03*
%TD*%
D10*
%TO.C,J7*%
X270000000Y-115500000D03*
D11*
X265500000Y-115500000D03*
%TD*%
D10*
%TO.C,J4*%
X269000000Y-139000000D03*
D11*
X264500000Y-139000000D03*
%TD*%
D10*
%TO.C,J3*%
X248000000Y-138500000D03*
D11*
X243500000Y-138500000D03*
%TD*%
D10*
%TO.C,J7*%
X265500000Y-107000000D03*
D11*
X270000000Y-107000000D03*
%TD*%
D10*
%TO.C,J7*%
X265500000Y-98500000D03*
D11*
X270000000Y-98500000D03*
%TD*%
D10*
%TO.C,R1*%
X240975000Y-85525000D03*
D11*
X240975000Y-92525000D03*
%TD*%
D10*
%TO.C,J6*%
X265500000Y-101000000D03*
D11*
X270000000Y-101000000D03*
%TD*%
D10*
%TO.C,R2*%
X240975000Y-109000000D03*
D11*
X240975000Y-116000000D03*
%TD*%
D10*
%TO.C,J7*%
X265500000Y-92500000D03*
D11*
X270000000Y-92500000D03*
%TD*%
D12*
%TO.C,U1*%
X241460000Y-133620000D03*
D13*
X244000000Y-133620000D03*
X246540000Y-133620000D03*
X249080000Y-133620000D03*
X251620000Y-133620000D03*
X254160000Y-133620000D03*
X256700000Y-133620000D03*
X259240000Y-133620000D03*
X259240000Y-126000000D03*
X256700000Y-126000000D03*
X254160000Y-126000000D03*
X251620000Y-126000000D03*
X249080000Y-126000000D03*
X246540000Y-126000000D03*
X244000000Y-126000000D03*
X241460000Y-126000000D03*
%TD*%
D10*
%TO.C,J1*%
X265500000Y-118500000D03*
D11*
X270000000Y-118500000D03*
%TD*%
D12*
%TO.C,U2*%
X248500000Y-86880000D03*
D13*
X248500000Y-89420000D03*
X248500000Y-91960000D03*
X248500000Y-94500000D03*
X248500000Y-97040000D03*
X248500000Y-99580000D03*
X248500000Y-102120000D03*
X248500000Y-104660000D03*
X248500000Y-107200000D03*
X248500000Y-109740000D03*
X248500000Y-112280000D03*
X248500000Y-114820000D03*
X248500000Y-117360000D03*
X248500000Y-119900000D03*
X256120000Y-119900000D03*
X256120000Y-117360000D03*
X256120000Y-114820000D03*
X256120000Y-112280000D03*
X256120000Y-109740000D03*
X256120000Y-107200000D03*
X256120000Y-104660000D03*
X256120000Y-102120000D03*
X256120000Y-99580000D03*
X256120000Y-97040000D03*
X256120000Y-94500000D03*
X256120000Y-91960000D03*
X256120000Y-89420000D03*
X256120000Y-86880000D03*
%TD*%
D10*
%TO.C,J5*%
X265500000Y-109500000D03*
D11*
X270000000Y-109500000D03*
%TD*%
D10*
%TO.C,J2*%
X241000000Y-98500000D03*
D11*
X241000000Y-103000000D03*
%TD*%
M02*
